<mxfile host="app.diagrams.net" modified="2024-01-25T08:35:22.133Z" agent="Mozilla/5.0 (Windows NT 10.0; Win64; x64) AppleWebKit/537.36 (KHTML, like Gecko) Chrome/120.0.0.0 Safari/537.36" etag="DnCaYSfGDDSOf5L-uH4n" version="23.0.1" type="google">
  <diagram name="페이지-1" id="aEvHvg_GISMhGPSxpiuL">
    <mxGraphModel grid="1" page="1" gridSize="10" guides="1" tooltips="1" connect="1" arrows="1" fold="1" pageScale="1" pageWidth="1169" pageHeight="827" math="0" shadow="0">
      <root>
        <mxCell id="0" />
        <mxCell id="1" parent="0" />
        <mxCell id="wB_7CRHb40THPqK0Hq_M-1" value="&lt;font style=&quot;font-size: 18px;&quot;&gt;Env&lt;/font&gt;" style="ellipse;whiteSpace=wrap;html=1;" vertex="1" parent="1">
          <mxGeometry x="-66" y="70" width="120" height="80" as="geometry" />
        </mxCell>
        <mxCell id="wB_7CRHb40THPqK0Hq_M-2" value="&lt;font style=&quot;font-size: 18px;&quot;&gt;DM&lt;/font&gt;" style="rounded=0;whiteSpace=wrap;html=1;" vertex="1" parent="1">
          <mxGeometry x="205" y="80" width="120" height="60" as="geometry" />
        </mxCell>
        <mxCell id="wB_7CRHb40THPqK0Hq_M-3" value="&lt;font style=&quot;font-size: 18px;&quot;&gt;MPM&lt;/font&gt;" style="rounded=0;whiteSpace=wrap;html=1;" vertex="1" parent="1">
          <mxGeometry x="365" y="80" width="120" height="60" as="geometry" />
        </mxCell>
        <mxCell id="wB_7CRHb40THPqK0Hq_M-4" value="&lt;font style=&quot;font-size: 18px;&quot;&gt;AM&lt;/font&gt;" style="rounded=0;whiteSpace=wrap;html=1;" vertex="1" parent="1">
          <mxGeometry x="525" y="80" width="120" height="60" as="geometry" />
        </mxCell>
        <mxCell id="wB_7CRHb40THPqK0Hq_M-5" value="&lt;font style=&quot;font-size: 18px;&quot;&gt;TM&lt;/font&gt;" style="rounded=0;whiteSpace=wrap;html=1;" vertex="1" parent="1">
          <mxGeometry x="685" y="80" width="120" height="60" as="geometry" />
        </mxCell>
        <mxCell id="wB_7CRHb40THPqK0Hq_M-6" value="&lt;font style=&quot;font-size: 18px;&quot;&gt;UIM&lt;/font&gt;" style="rounded=0;whiteSpace=wrap;html=1;" vertex="1" parent="1">
          <mxGeometry x="845" y="80" width="120" height="60" as="geometry" />
        </mxCell>
        <mxCell id="wB_7CRHb40THPqK0Hq_M-10" value="&lt;font style=&quot;font-size: 18px;&quot;&gt;User&lt;/font&gt;" style="ellipse;whiteSpace=wrap;html=1;" vertex="1" parent="1">
          <mxGeometry x="1013" y="70" width="120" height="80" as="geometry" />
        </mxCell>
        <mxCell id="wB_7CRHb40THPqK0Hq_M-11" value="" style="endArrow=classic;html=1;rounded=0;exitX=0.5;exitY=1;exitDx=0;exitDy=0;" edge="1" parent="1" source="wB_7CRHb40THPqK0Hq_M-1">
          <mxGeometry width="50" height="50" relative="1" as="geometry">
            <mxPoint x="-6.059999999999974" y="140" as="sourcePoint" />
            <mxPoint x="-7" y="520" as="targetPoint" />
          </mxGeometry>
        </mxCell>
        <mxCell id="wB_7CRHb40THPqK0Hq_M-12" value="" style="endArrow=classic;html=1;rounded=0;" edge="1" parent="1">
          <mxGeometry width="50" height="50" relative="1" as="geometry">
            <mxPoint x="264.94000000000005" y="140" as="sourcePoint" />
            <mxPoint x="264" y="520" as="targetPoint" />
          </mxGeometry>
        </mxCell>
        <mxCell id="wB_7CRHb40THPqK0Hq_M-14" value="" style="endArrow=classic;html=1;rounded=0;" edge="1" parent="1">
          <mxGeometry width="50" height="50" relative="1" as="geometry">
            <mxPoint x="584.94" y="140" as="sourcePoint" />
            <mxPoint x="584" y="520" as="targetPoint" />
          </mxGeometry>
        </mxCell>
        <mxCell id="wB_7CRHb40THPqK0Hq_M-16" value="" style="endArrow=classic;html=1;rounded=0;" edge="1" parent="1">
          <mxGeometry width="50" height="50" relative="1" as="geometry">
            <mxPoint x="904.94" y="140" as="sourcePoint" />
            <mxPoint x="904" y="520" as="targetPoint" />
          </mxGeometry>
        </mxCell>
        <mxCell id="wB_7CRHb40THPqK0Hq_M-17" value="" style="endArrow=classic;html=1;rounded=0;" edge="1" parent="1">
          <mxGeometry width="50" height="50" relative="1" as="geometry">
            <mxPoint x="1072" y="150" as="sourcePoint" />
            <mxPoint x="1072" y="520" as="targetPoint" />
          </mxGeometry>
        </mxCell>
        <mxCell id="z3fk2WP9xM1_8R4VP8eC-8" value="" style="endArrow=classic;html=1;rounded=0;startArrow=none;startFill=0;endFill=1;" edge="1" parent="1">
          <mxGeometry width="50" height="50" relative="1" as="geometry">
            <mxPoint x="744.2364705882351" y="140" as="sourcePoint" />
            <mxPoint x="745.1764705882351" y="520" as="targetPoint" />
          </mxGeometry>
        </mxCell>
        <mxCell id="z3fk2WP9xM1_8R4VP8eC-13" value="" style="endArrow=classic;endSize=6;html=1;rounded=0;endFill=1;" edge="1" parent="1">
          <mxGeometry x="0.0303" y="-10" width="160" relative="1" as="geometry">
            <mxPoint x="1070" y="179" as="sourcePoint" />
            <mxPoint x="905" y="179" as="targetPoint" />
            <mxPoint as="offset" />
          </mxGeometry>
        </mxCell>
        <mxCell id="uu7IkURZ4dPjVnex0N1E-1" value="긴급상황 판단 후 작업 정지" style="edgeLabel;html=1;align=center;verticalAlign=middle;resizable=0;points=[];" connectable="0" vertex="1" parent="z3fk2WP9xM1_8R4VP8eC-13">
          <mxGeometry relative="1" as="geometry">
            <mxPoint as="offset" />
          </mxGeometry>
        </mxCell>
        <mxCell id="z3fk2WP9xM1_8R4VP8eC-14" value="" style="endArrow=open;endSize=6;html=1;rounded=0;endFill=0;startSize=6;" edge="1" parent="1">
          <mxGeometry x="0.0307" y="-20" width="160" relative="1" as="geometry">
            <mxPoint x="905" y="217" as="sourcePoint" />
            <mxPoint x="746" y="217" as="targetPoint" />
            <mxPoint as="offset" />
          </mxGeometry>
        </mxCell>
        <mxCell id="lTXoIBKBTTT-Uh1s0AAq-6" value="긴급 작업 종료&lt;br style=&quot;border-color: var(--border-color); font-size: 12px;&quot;&gt;(publish)" style="edgeLabel;html=1;align=center;verticalAlign=middle;resizable=0;points=[];fontSize=12;" connectable="0" vertex="1" parent="z3fk2WP9xM1_8R4VP8eC-14">
          <mxGeometry relative="1" as="geometry">
            <mxPoint y="-20" as="offset" />
          </mxGeometry>
        </mxCell>
        <mxCell id="z3fk2WP9xM1_8R4VP8eC-15" value="" style="endArrow=open;endSize=6;html=1;rounded=0;endFill=0;startSize=6;" edge="1" parent="1">
          <mxGeometry y="-20" width="160" relative="1" as="geometry">
            <mxPoint x="748" y="424" as="sourcePoint" />
            <mxPoint x="903" y="424" as="targetPoint" />
            <mxPoint as="offset" />
            <Array as="points" />
          </mxGeometry>
        </mxCell>
        <mxCell id="lTXoIBKBTTT-Uh1s0AAq-5" value="작업 종료 알림&lt;br style=&quot;border-color: var(--border-color); font-size: 12px;&quot;&gt;(publish)" style="edgeLabel;html=1;align=center;verticalAlign=middle;resizable=0;points=[];fontSize=12;" connectable="0" vertex="1" parent="z3fk2WP9xM1_8R4VP8eC-15">
          <mxGeometry relative="1" as="geometry">
            <mxPoint x="-1" y="-18" as="offset" />
          </mxGeometry>
        </mxCell>
        <mxCell id="PWW2UstbYue9-_PvLg0V-2" value="" style="endArrow=classic;html=1;rounded=0;endFill=1;exitX=0.5;exitY=1;exitDx=0;exitDy=0;" edge="1" parent="1" source="wB_7CRHb40THPqK0Hq_M-3">
          <mxGeometry width="50" height="50" relative="1" as="geometry">
            <mxPoint x="420" y="140" as="sourcePoint" />
            <mxPoint x="424.94000000000005" y="520" as="targetPoint" />
          </mxGeometry>
        </mxCell>
        <mxCell id="PesOkgr_JWjeiQSfBcjr-1" value="" style="endArrow=classic;endSize=6;html=1;rounded=0;endFill=1;startSize=6;" edge="1" parent="1">
          <mxGeometry x="0.0307" y="-20" width="160" relative="1" as="geometry">
            <mxPoint x="744" y="250" as="sourcePoint" />
            <mxPoint x="585" y="250" as="targetPoint" />
            <mxPoint as="offset" />
          </mxGeometry>
        </mxCell>
        <mxCell id="PesOkgr_JWjeiQSfBcjr-2" value="작업 중지 요청&lt;br&gt;(service request)" style="edgeLabel;html=1;align=center;verticalAlign=middle;resizable=0;points=[];fontSize=12;" connectable="0" vertex="1" parent="PesOkgr_JWjeiQSfBcjr-1">
          <mxGeometry relative="1" as="geometry">
            <mxPoint y="-20" as="offset" />
          </mxGeometry>
        </mxCell>
        <mxCell id="PesOkgr_JWjeiQSfBcjr-3" value="" style="endArrow=classic;endSize=6;html=1;rounded=0;endFill=1;dashed=1;startSize=6;" edge="1" parent="1">
          <mxGeometry y="-20" width="160" relative="1" as="geometry">
            <mxPoint x="585" y="401" as="sourcePoint" />
            <mxPoint x="730" y="401" as="targetPoint" />
            <mxPoint as="offset" />
            <Array as="points" />
          </mxGeometry>
        </mxCell>
        <mxCell id="PesOkgr_JWjeiQSfBcjr-4" value="작업 중지 결과 반환&lt;br style=&quot;border-color: var(--border-color);&quot;&gt;(service response)" style="edgeLabel;html=1;align=center;verticalAlign=middle;resizable=0;points=[];fontSize=12;" connectable="0" vertex="1" parent="PesOkgr_JWjeiQSfBcjr-3">
          <mxGeometry relative="1" as="geometry">
            <mxPoint y="-21" as="offset" />
          </mxGeometry>
        </mxCell>
        <mxCell id="PesOkgr_JWjeiQSfBcjr-6" value="" style="endArrow=classic;endSize=6;html=1;rounded=0;endFill=1;startSize=6;" edge="1" parent="1">
          <mxGeometry y="-20" width="160" relative="1" as="geometry">
            <mxPoint x="909" y="453" as="sourcePoint" />
            <mxPoint x="1069" y="453" as="targetPoint" />
            <mxPoint as="offset" />
            <Array as="points" />
          </mxGeometry>
        </mxCell>
        <mxCell id="PesOkgr_JWjeiQSfBcjr-7" value="작업 종료 메시지 출력&lt;br&gt;(text/tts)" style="edgeLabel;html=1;align=center;verticalAlign=middle;resizable=0;points=[];fontSize=12;" connectable="0" vertex="1" parent="PesOkgr_JWjeiQSfBcjr-6">
          <mxGeometry relative="1" as="geometry">
            <mxPoint x="-1" y="-21" as="offset" />
          </mxGeometry>
        </mxCell>
        <mxCell id="PesOkgr_JWjeiQSfBcjr-8" value="" style="endArrow=open;html=1;rounded=0;endFill=0;" edge="1" parent="1">
          <mxGeometry width="50" height="50" relative="1" as="geometry">
            <mxPoint x="124" y="300" as="sourcePoint" />
            <mxPoint x="-5" y="300.0033333333339" as="targetPoint" />
          </mxGeometry>
        </mxCell>
        <mxCell id="PesOkgr_JWjeiQSfBcjr-9" value="회전 속도값(0) 발행" style="edgeLabel;html=1;align=center;verticalAlign=middle;resizable=0;points=[];fontSize=12;" connectable="0" vertex="1" parent="PesOkgr_JWjeiQSfBcjr-8">
          <mxGeometry relative="1" as="geometry">
            <mxPoint x="-5" y="-13" as="offset" />
          </mxGeometry>
        </mxCell>
        <mxCell id="PesOkgr_JWjeiQSfBcjr-10" value="" style="endArrow=open;html=1;rounded=0;endFill=0;" edge="1" parent="1">
          <mxGeometry width="50" height="50" relative="1" as="geometry">
            <mxPoint x="124" y="327" as="sourcePoint" />
            <mxPoint x="-6" y="326.67333333333397" as="targetPoint" />
          </mxGeometry>
        </mxCell>
        <mxCell id="PesOkgr_JWjeiQSfBcjr-11" value="직진 속도값(0) 발행&amp;nbsp; &amp;nbsp;" style="edgeLabel;html=1;align=center;verticalAlign=middle;resizable=0;points=[];fontSize=12;" connectable="0" vertex="1" parent="PesOkgr_JWjeiQSfBcjr-10">
          <mxGeometry relative="1" as="geometry">
            <mxPoint x="2" y="-13" as="offset" />
          </mxGeometry>
        </mxCell>
        <mxCell id="n2DTjoQ8KGSnRl_hWMme-5" value="" style="endArrow=classic;html=1;rounded=0;exitX=0.5;exitY=1;exitDx=0;exitDy=0;" edge="1" parent="1" source="yvqHR4qqfwZrxKUIlugv-1">
          <mxGeometry width="50" height="50" relative="1" as="geometry">
            <mxPoint x="125.44000000000005" y="150" as="sourcePoint" />
            <mxPoint x="125" y="520" as="targetPoint" />
          </mxGeometry>
        </mxCell>
        <mxCell id="n2DTjoQ8KGSnRl_hWMme-8" value="" style="endArrow=classic;endSize=6;html=1;rounded=0;endFill=1;startSize=6;" edge="1" parent="1">
          <mxGeometry x="0.0307" y="-20" width="160" relative="1" as="geometry">
            <mxPoint x="580" y="270" as="sourcePoint" />
            <mxPoint x="130" y="270" as="targetPoint" />
            <mxPoint as="offset" />
          </mxGeometry>
        </mxCell>
        <mxCell id="Zp23kgIejDd6u-t37P0I-2" value="행동 정지&lt;br style=&quot;border-color: var(--border-color); font-size: 12px;&quot;&gt;&lt;span style=&quot;font-size: 12px;&quot;&gt;(action goal)&lt;/span&gt;" style="edgeLabel;html=1;align=center;verticalAlign=middle;resizable=0;points=[];" connectable="0" vertex="1" parent="n2DTjoQ8KGSnRl_hWMme-8">
          <mxGeometry relative="1" as="geometry">
            <mxPoint as="offset" />
          </mxGeometry>
        </mxCell>
        <mxCell id="n2DTjoQ8KGSnRl_hWMme-11" value="" style="endArrow=open;html=1;rounded=0;endFill=0;dashed=1;" edge="1" parent="1">
          <mxGeometry width="50" height="50" relative="1" as="geometry">
            <mxPoint x="130" y="360.00219858156066" as="sourcePoint" />
            <mxPoint x="580" y="360" as="targetPoint" />
          </mxGeometry>
        </mxCell>
        <mxCell id="n2DTjoQ8KGSnRl_hWMme-12" value="&lt;p style=&quot;margin-top: 0pt; margin-bottom: 0pt; margin-left: 0in; direction: ltr; unicode-bidi: embed; font-size: 12px;&quot;&gt;&lt;br&gt;&lt;/p&gt;" style="edgeLabel;html=1;align=center;verticalAlign=middle;resizable=0;points=[];fontSize=12;" connectable="0" vertex="1" parent="n2DTjoQ8KGSnRl_hWMme-11">
          <mxGeometry relative="1" as="geometry">
            <mxPoint x="-6" y="-17" as="offset" />
          </mxGeometry>
        </mxCell>
        <mxCell id="Zp23kgIejDd6u-t37P0I-1" value="&lt;p style=&quot;border-color: var(--border-color); font-size: 12px; margin-top: 0pt; margin-bottom: 0pt; margin-left: 0in; direction: ltr; unicode-bidi: embed;&quot;&gt;결과 보고&lt;/p&gt;&lt;p style=&quot;border-color: var(--border-color); font-size: 12px; margin-top: 0pt; margin-bottom: 0pt; margin-left: 0in; direction: ltr; unicode-bidi: embed;&quot;&gt;(action result)&lt;/p&gt;" style="edgeLabel;html=1;align=center;verticalAlign=middle;resizable=0;points=[];" connectable="0" vertex="1" parent="n2DTjoQ8KGSnRl_hWMme-11">
          <mxGeometry relative="1" as="geometry">
            <mxPoint as="offset" />
          </mxGeometry>
        </mxCell>
        <mxCell id="yvqHR4qqfwZrxKUIlugv-1" value="&lt;span style=&quot;font-size: 18px;&quot;&gt;AE&lt;/span&gt;" style="rounded=0;whiteSpace=wrap;html=1;" vertex="1" parent="1">
          <mxGeometry x="66" y="80" width="120" height="60" as="geometry" />
        </mxCell>
        <mxCell id="yvqHR4qqfwZrxKUIlugv-2" value="" style="rounded=0;whiteSpace=wrap;html=1;" vertex="1" parent="1">
          <mxGeometry x="735" y="234" width="20" height="180" as="geometry" />
        </mxCell>
      </root>
    </mxGraphModel>
  </diagram>
</mxfile>
